G04*
G04 #@! TF.GenerationSoftware,Altium Limited,Altium Designer,19.0.11 (319)*
G04*
G04 Layer_Color=16711935*
%FSLAX44Y44*%
%MOMM*%
G71*
G01*
G75*
%ADD10C,0.2000*%
%ADD12C,0.1000*%
D10*
X185500Y61000D02*
X360500D01*
Y19000D02*
Y61000D01*
X185500Y19000D02*
X360500D01*
X185500D02*
Y61000D01*
X190500Y9000D02*
X355500D01*
Y51000D01*
X190500D02*
X355500D01*
X190500Y9000D02*
Y51000D01*
D12*
X315750Y181000D02*
X338250D01*
X315750Y167500D02*
X338250D01*
Y181000D01*
X315750Y167500D02*
Y181000D01*
X350250Y83250D02*
Y109250D01*
X317250Y83250D02*
Y109250D01*
Y83250D02*
X350250D01*
X317250Y109250D02*
X350250D01*
X297500Y101000D02*
X307000D01*
X297500Y83500D02*
X307000D01*
Y101000D01*
X297500Y83500D02*
Y101000D01*
X263250Y151250D02*
X272750D01*
X263250Y133750D02*
X272750D01*
Y151250D01*
X263250Y133750D02*
Y151250D01*
X279000D02*
X288500D01*
X279000Y133750D02*
X288500D01*
Y151250D01*
X279000Y133750D02*
Y151250D01*
X269750Y163000D02*
Y179000D01*
X253750Y163000D02*
X269750D01*
X253750D02*
Y179000D01*
X269750D01*
X265750D02*
X269750Y175000D01*
X257000Y133500D02*
Y151000D01*
X247500Y133500D02*
Y151000D01*
X257000D01*
X247500Y133500D02*
X257000D01*
X187000Y83250D02*
X196500D01*
X187000Y100750D02*
X196500D01*
X187000Y83250D02*
Y100750D01*
X196500Y83250D02*
Y100750D01*
X218500Y83250D02*
X228000D01*
X218500Y100750D02*
X228000D01*
X218500Y83250D02*
Y100750D01*
X228000Y83250D02*
Y100750D01*
X407750Y78750D02*
Y88250D01*
X390250Y78750D02*
Y88250D01*
Y78750D02*
X407750D01*
X390250Y88250D02*
X407750D01*
Y94500D02*
Y104000D01*
X390250Y94500D02*
Y104000D01*
Y94500D02*
X407750D01*
X390250Y104000D02*
X407750D01*
Y126000D02*
Y135500D01*
X390250Y126000D02*
Y135500D01*
Y126000D02*
X407750D01*
X390250Y135500D02*
X407750D01*
X390000Y173250D02*
X407500D01*
X390000Y182750D02*
X407500D01*
Y173250D02*
Y182750D01*
X390000Y173250D02*
Y182750D01*
Y119750D02*
X407500D01*
X390000Y110250D02*
X407500D01*
X390000D02*
Y119750D01*
X407500Y110250D02*
Y119750D01*
X390000Y167000D02*
X407500D01*
X390000Y157500D02*
X407500D01*
X390000D02*
Y167000D01*
X407500Y157500D02*
Y167000D01*
X390000Y141750D02*
X407500D01*
X390000Y151250D02*
X407500D01*
Y141750D02*
Y151250D01*
X390000Y141750D02*
Y151250D01*
X139750Y128500D02*
Y138000D01*
X157250Y128500D02*
Y138000D01*
X139750D02*
X157250D01*
X139750Y128500D02*
X157250D01*
X139750Y97000D02*
Y106500D01*
X157250Y97000D02*
Y106500D01*
X139750D02*
X157250D01*
X139750Y97000D02*
X157250D01*
X139750Y65500D02*
Y75000D01*
X157250Y65500D02*
Y75000D01*
X139750D02*
X157250D01*
X139750Y65500D02*
X157250D01*
X139750Y81250D02*
Y90750D01*
X157250Y81250D02*
Y90750D01*
X139750D02*
X157250D01*
X139750Y81250D02*
X157250D01*
X139500Y185250D02*
X157000D01*
X139500Y175750D02*
X157000D01*
X139500D02*
Y185250D01*
X157000Y175750D02*
Y185250D01*
X139500Y112750D02*
X157000D01*
X139500Y122250D02*
X157000D01*
Y112750D02*
Y122250D01*
X139500Y112750D02*
Y122250D01*
Y160000D02*
X157000D01*
X139500Y169500D02*
X157000D01*
Y160000D02*
Y169500D01*
X139500Y160000D02*
Y169500D01*
Y153750D02*
X157000D01*
X139500Y144250D02*
X157000D01*
X139500D02*
Y153750D01*
X157000Y144250D02*
Y153750D01*
X266000Y100750D02*
X275500D01*
X266000Y83250D02*
X275500D01*
Y100750D01*
X266000Y83250D02*
Y100750D01*
X281750Y101000D02*
X291250D01*
X281750Y83500D02*
X291250D01*
Y101000D01*
X281750Y83500D02*
Y101000D01*
X202750D02*
X212250D01*
X202750Y83500D02*
X212250D01*
Y101000D01*
X202750Y83500D02*
Y101000D01*
X259500Y83250D02*
Y100750D01*
X250000Y83250D02*
Y100750D01*
X259500D01*
X250000Y83250D02*
X259500D01*
X234250Y101000D02*
X243750D01*
X234250Y83500D02*
X243750D01*
Y101000D01*
X234250Y83500D02*
Y101000D01*
X278000Y189250D02*
Y198750D01*
X260500Y189250D02*
Y198750D01*
Y189250D02*
X278000D01*
X260500Y198750D02*
X278000D01*
X279000Y179750D02*
X288500D01*
X279000Y162250D02*
X288500D01*
Y179750D01*
X279000Y162250D02*
Y179750D01*
X345750Y207000D02*
X363250D01*
X345750Y216500D02*
X363250D01*
Y207000D02*
Y216500D01*
X345750Y207000D02*
Y216500D01*
X378500Y207000D02*
X396000D01*
X378500Y216500D02*
X396000D01*
Y207000D02*
Y216500D01*
X378500Y207000D02*
Y216500D01*
X318000Y142750D02*
Y152250D01*
X335500Y142750D02*
Y152250D01*
X318000D02*
X335500D01*
X318000Y142750D02*
X335500D01*
X311500Y199000D02*
Y208500D01*
X329000Y199000D02*
Y208500D01*
X311500D02*
X329000D01*
X311500Y199000D02*
X329000D01*
X361000Y112500D02*
Y130000D01*
X370500Y112500D02*
Y130000D01*
X361000Y112500D02*
X370500D01*
X361000Y130000D02*
X370500D01*
X360750Y83500D02*
Y101000D01*
X370250Y83500D02*
Y101000D01*
X360750Y83500D02*
X370250D01*
X360750Y101000D02*
X370250D01*
X384500Y233250D02*
Y247250D01*
X356500Y233250D02*
Y247250D01*
X384500D01*
X356500Y233250D02*
X384500D01*
X400500Y235000D02*
Y252500D01*
X391000Y235000D02*
Y252500D01*
X400500D01*
X391000Y235000D02*
X400500D01*
X180000Y216750D02*
X197500D01*
X180000Y207250D02*
X197500D01*
X180000D02*
Y216750D01*
X197500Y207250D02*
Y216750D01*
X151500D02*
X169000D01*
X151500Y207250D02*
X169000D01*
X151500D02*
Y216750D01*
X169000Y207250D02*
Y216750D01*
X190250Y233250D02*
Y247250D01*
X162250Y233250D02*
Y247250D01*
X190250D01*
X162250Y233250D02*
X190250D01*
X156000Y235000D02*
Y252500D01*
X146500Y235000D02*
Y252500D01*
X156000D01*
X146500Y235000D02*
X156000D01*
X54250Y67300D02*
X134250D01*
X54250D02*
Y183300D01*
X134250D01*
Y67300D02*
Y183300D01*
X411750Y69000D02*
X491750D01*
X411750D02*
Y185000D01*
X491750D01*
Y69000D02*
Y185000D01*
X391000Y200000D02*
Y217500D01*
X400500Y200000D02*
Y217500D01*
X391000D02*
X400500D01*
X391000Y200000D02*
X400500D01*
X146500D02*
Y217500D01*
X156000Y200000D02*
Y217500D01*
X146500D02*
X156000D01*
X146500Y200000D02*
X156000D01*
X391000Y232500D02*
Y250000D01*
X400500Y232500D02*
Y250000D01*
X391000D02*
X400500D01*
X391000Y232500D02*
X400500D01*
X146500D02*
Y250000D01*
X156000Y232500D02*
Y250000D01*
X146500D02*
X156000D01*
X146500Y232500D02*
X156000D01*
X190750Y132500D02*
X200250D01*
X190750Y150000D02*
X200250D01*
X190750Y132500D02*
Y150000D01*
X200250Y132500D02*
Y150000D01*
X222250Y133750D02*
Y151250D01*
X231750Y133750D02*
Y151250D01*
X222250Y133750D02*
X231750D01*
X222250Y151250D02*
X231750D01*
X206500Y133750D02*
Y151250D01*
X216000Y133750D02*
Y151250D01*
X206500Y133750D02*
X216000D01*
X206500Y151250D02*
X216000D01*
X222250Y180000D02*
X231750D01*
X222250Y162500D02*
X231750D01*
Y180000D01*
X222250Y162500D02*
Y180000D01*
X221250Y189250D02*
Y198750D01*
X203750Y189250D02*
Y198750D01*
Y189250D02*
X221250D01*
X203750Y198750D02*
X221250D01*
X213000Y163000D02*
Y179000D01*
X197000Y163000D02*
X213000D01*
X197000D02*
Y179000D01*
X213000D01*
X209000D02*
X213000Y175000D01*
M02*
