G04*
G04 #@! TF.GenerationSoftware,Altium Limited,Altium Designer,19.0.11 (319)*
G04*
G04 Layer_Color=8388736*
%FSLAX44Y44*%
%MOMM*%
G71*
G01*
G75*
%ADD27C,3.0000*%
%ADD28R,0.5500X1.0500*%
%ADD29R,1.1000X1.3000*%
%ADD30R,1.1000X1.0000*%
%ADD31R,1.0500X0.9500*%
%ADD32R,0.4000X0.8000*%
%ADD33R,1.4100X0.6500*%
%ADD34R,0.9500X1.0500*%
%ADD35R,1.0000X1.1000*%
%ADD36R,0.9000X1.0000*%
%ADD37R,0.4000X1.5000*%
%ADD38R,2.7500X2.4000*%
%ADD39C,4.1000*%
D27*
X58510Y178500D02*
G03*
X58510Y178500I-10J0D01*
G01*
X487010Y75250D02*
G03*
X487010Y75250I-10J0D01*
G01*
D28*
X333500Y185250D02*
D03*
X327000D02*
D03*
X320500D02*
D03*
Y163250D02*
D03*
X333500D02*
D03*
D29*
X346750Y104750D02*
D03*
Y87750D02*
D03*
X320750Y104750D02*
D03*
Y87750D02*
D03*
D30*
X302250Y99000D02*
D03*
Y85500D02*
D03*
X252250Y149000D02*
D03*
Y135500D02*
D03*
X286500Y99000D02*
D03*
Y85500D02*
D03*
X207500Y99000D02*
D03*
Y85500D02*
D03*
X239000Y99000D02*
D03*
Y85500D02*
D03*
X283750Y177750D02*
D03*
Y164250D02*
D03*
X365500Y85500D02*
D03*
Y99000D02*
D03*
X195500Y134500D02*
D03*
Y148000D02*
D03*
X227000Y178000D02*
D03*
Y164500D02*
D03*
D31*
X268000Y149000D02*
D03*
Y136000D02*
D03*
X283750Y149000D02*
D03*
Y136000D02*
D03*
X191750Y85500D02*
D03*
Y98500D02*
D03*
X223250Y85500D02*
D03*
Y98500D02*
D03*
X270750D02*
D03*
Y85500D02*
D03*
X254750Y98500D02*
D03*
Y85500D02*
D03*
X365750Y114750D02*
D03*
Y127750D02*
D03*
X395750Y250250D02*
D03*
Y237250D02*
D03*
X151250Y250250D02*
D03*
Y237250D02*
D03*
X227000Y136000D02*
D03*
Y149000D02*
D03*
X211250Y136000D02*
D03*
Y149000D02*
D03*
D32*
X266750Y179000D02*
D03*
X261750D02*
D03*
X256750D02*
D03*
Y163000D02*
D03*
X261750D02*
D03*
X266750D02*
D03*
X210000Y179000D02*
D03*
X205000D02*
D03*
X200000D02*
D03*
Y163000D02*
D03*
X205000D02*
D03*
X210000D02*
D03*
D33*
X261750Y171000D02*
D03*
X205000Y171000D02*
D03*
D34*
X405500Y83500D02*
D03*
X392500D02*
D03*
X405500Y99250D02*
D03*
X392500D02*
D03*
X405500Y130750D02*
D03*
X392500D02*
D03*
X142000Y133250D02*
D03*
X155000D02*
D03*
X142000Y101750D02*
D03*
X155000D02*
D03*
X142000Y70250D02*
D03*
X155000D02*
D03*
X142000Y86000D02*
D03*
X155000D02*
D03*
X361000Y211750D02*
D03*
X348000D02*
D03*
X393750D02*
D03*
X380750D02*
D03*
X182250Y212000D02*
D03*
X195250D02*
D03*
X153750D02*
D03*
X166750D02*
D03*
D35*
X405500Y178000D02*
D03*
X392000D02*
D03*
Y115000D02*
D03*
X405500D02*
D03*
X392000Y162250D02*
D03*
X405500D02*
D03*
Y146500D02*
D03*
X392000D02*
D03*
X141500Y180500D02*
D03*
X155000D02*
D03*
Y117500D02*
D03*
X141500D02*
D03*
X155000Y164750D02*
D03*
X141500D02*
D03*
Y149000D02*
D03*
X155000D02*
D03*
X276000Y194000D02*
D03*
X262500D02*
D03*
X320000Y147500D02*
D03*
X333500D02*
D03*
X313500Y203750D02*
D03*
X327000D02*
D03*
X219250Y194000D02*
D03*
X205750D02*
D03*
D36*
X370500Y250250D02*
D03*
X380000Y230250D02*
D03*
X361000D02*
D03*
X176250Y250250D02*
D03*
X185750Y230250D02*
D03*
X166750D02*
D03*
D37*
X325500Y54500D02*
D03*
X320500D02*
D03*
X220500D02*
D03*
X225500D02*
D03*
X230500D02*
D03*
X235500D02*
D03*
X240500D02*
D03*
X245500D02*
D03*
X250500D02*
D03*
X255500D02*
D03*
X260500D02*
D03*
X265500D02*
D03*
X270500D02*
D03*
X275500D02*
D03*
X280500D02*
D03*
X285500D02*
D03*
X290500D02*
D03*
X295500D02*
D03*
X300500D02*
D03*
X305500D02*
D03*
X310500D02*
D03*
X315500D02*
D03*
D38*
X202750Y42000D02*
D03*
X343250D02*
D03*
D39*
X21500Y128250D02*
D03*
X524500Y124750D02*
D03*
M02*
