G04*
G04 #@! TF.GenerationSoftware,Altium Limited,Altium Designer,19.0.11 (319)*
G04*
G04 Layer_Color=16711935*
%FSLAX44Y44*%
%MOMM*%
G71*
G01*
G75*
%ADD27C,3.0000*%
%ADD37R,0.4000X1.5000*%
%ADD38R,2.7500X2.4000*%
%ADD39C,4.1000*%
%ADD48R,2.7000X0.9000*%
%ADD49R,2.7000X0.8000*%
%ADD50R,3.7000X0.9000*%
%ADD51R,0.9000X0.9000*%
D27*
X185260Y215000D02*
G03*
X185260Y215000I-10J0D01*
G01*
X344260Y86750D02*
G03*
X344260Y86750I-10J0D01*
G01*
D37*
X215500Y16000D02*
D03*
X220500D02*
D03*
X225500D02*
D03*
X230500D02*
D03*
X235500D02*
D03*
X240500D02*
D03*
X245500D02*
D03*
X250500D02*
D03*
X255500D02*
D03*
X260500D02*
D03*
X265500D02*
D03*
X270500D02*
D03*
X275500D02*
D03*
X280500D02*
D03*
X285500D02*
D03*
X290500D02*
D03*
X295500D02*
D03*
X300500D02*
D03*
X305500D02*
D03*
X310500D02*
D03*
X315500D02*
D03*
X320500D02*
D03*
X325500D02*
D03*
X330500D02*
D03*
D38*
X197750Y28500D02*
D03*
X348250D02*
D03*
D39*
X21500Y128250D02*
D03*
X524500Y124750D02*
D03*
D48*
X124750Y70300D02*
D03*
Y180300D02*
D03*
X63750D02*
D03*
X482250Y72000D02*
D03*
Y182000D02*
D03*
X421250D02*
D03*
D49*
X124750Y99900D02*
D03*
Y112600D02*
D03*
Y125300D02*
D03*
Y138000D02*
D03*
Y150700D02*
D03*
X63750D02*
D03*
Y138000D02*
D03*
Y125300D02*
D03*
Y112600D02*
D03*
Y99900D02*
D03*
X482250Y101600D02*
D03*
Y114300D02*
D03*
Y127000D02*
D03*
Y139700D02*
D03*
Y152400D02*
D03*
X421250D02*
D03*
Y139700D02*
D03*
Y127000D02*
D03*
Y114300D02*
D03*
Y101600D02*
D03*
D50*
X68750Y70300D02*
D03*
X426250Y72000D02*
D03*
D51*
X395750Y216250D02*
D03*
Y201250D02*
D03*
X151250Y216250D02*
D03*
Y201250D02*
D03*
X395750Y248750D02*
D03*
Y233750D02*
D03*
X151250Y248750D02*
D03*
Y233750D02*
D03*
M02*
