G04*
G04 #@! TF.GenerationSoftware,Altium Limited,Altium Designer,19.0.11 (319)*
G04*
G04 Layer_Color=32768*
%FSLAX44Y44*%
%MOMM*%
G71*
G01*
G75*
%ADD12C,0.1000*%
%ADD52C,0.0500*%
D12*
X327000Y169250D02*
Y179250D01*
X322000Y174250D02*
X332000D01*
X328750Y96250D02*
X338750D01*
X333750Y91250D02*
Y101250D01*
X302250Y87500D02*
Y97000D01*
X297500Y92250D02*
X307000D01*
X268000Y137750D02*
Y147250D01*
X263250Y142500D02*
X272750D01*
X283750Y137750D02*
Y147250D01*
X279000Y142500D02*
X288500D01*
X247500Y142250D02*
X257000D01*
X252250Y137500D02*
Y147000D01*
X191750Y87250D02*
Y96750D01*
X187000Y92000D02*
X196500D01*
X223250Y87250D02*
Y96750D01*
X218500Y92000D02*
X228000D01*
X394250Y83500D02*
X403750D01*
X399000Y78750D02*
Y88250D01*
X394250Y99250D02*
X403750D01*
X399000Y94500D02*
Y104000D01*
X394250Y130750D02*
X403750D01*
X399000Y126000D02*
Y135500D01*
X398750Y173250D02*
Y182750D01*
X394000Y178000D02*
X403500D01*
X398750Y110250D02*
Y119750D01*
X394000Y115000D02*
X403500D01*
X398750Y157500D02*
Y167000D01*
X394000Y162250D02*
X403500D01*
X398750Y141750D02*
Y151250D01*
X394000Y146500D02*
X403500D01*
X143750Y133250D02*
X153250D01*
X148500Y128500D02*
Y138000D01*
X143750Y101750D02*
X153250D01*
X148500Y97000D02*
Y106500D01*
X143750Y70250D02*
X153250D01*
X148500Y65500D02*
Y75000D01*
X143750Y86000D02*
X153250D01*
X148500Y81250D02*
Y90750D01*
X148250Y175750D02*
Y185250D01*
X143500Y180500D02*
X153000D01*
X148250Y112750D02*
Y122250D01*
X143500Y117500D02*
X153000D01*
X148250Y160000D02*
Y169500D01*
X143500Y164750D02*
X153000D01*
X148250Y144250D02*
Y153750D01*
X143500Y149000D02*
X153000D01*
X270750Y87250D02*
Y96750D01*
X266000Y92000D02*
X275500D01*
X286500Y87500D02*
Y97000D01*
X281750Y92250D02*
X291250D01*
X207500Y87500D02*
Y97000D01*
X202750Y92250D02*
X212250D01*
X250000Y92000D02*
X259500D01*
X254750Y87250D02*
Y96750D01*
X239000Y87500D02*
Y97000D01*
X234250Y92250D02*
X243750D01*
X264500Y194000D02*
X274000D01*
X269250Y189250D02*
Y198750D01*
X283750Y166250D02*
Y175750D01*
X279000Y171000D02*
X288500D01*
X354500Y207000D02*
Y216500D01*
X349750Y211750D02*
X359250D01*
X387250Y207000D02*
Y216500D01*
X382500Y211750D02*
X392000D01*
X322000Y147500D02*
X331500D01*
X326750Y142750D02*
Y152250D01*
X315500Y203750D02*
X325000D01*
X320250Y199000D02*
Y208500D01*
X361000Y121250D02*
X370500D01*
X365750Y116500D02*
Y126000D01*
X360750Y92250D02*
X370250D01*
X365500Y87500D02*
Y97000D01*
Y240250D02*
X375500D01*
X370500Y235250D02*
Y245250D01*
X391000Y243750D02*
X400500D01*
X395750Y239000D02*
Y248500D01*
X188750Y207250D02*
Y216750D01*
X184000Y212000D02*
X193500D01*
X160250Y207250D02*
Y216750D01*
X155500Y212000D02*
X165000D01*
X171250Y240250D02*
X181250D01*
X176250Y235250D02*
Y245250D01*
X146500Y243750D02*
X156000D01*
X151250Y239000D02*
Y248500D01*
X174500Y-8500D02*
X371500D01*
Y71000D01*
X174500D02*
X371500D01*
X174500Y-8500D02*
Y71000D01*
X391000Y208750D02*
X400500D01*
X395750Y204000D02*
Y213500D01*
X146500Y208750D02*
X156000D01*
X151250Y204000D02*
Y213500D01*
X391000Y241250D02*
X400500D01*
X395750Y236500D02*
Y246000D01*
X146500Y241250D02*
X156000D01*
X151250Y236500D02*
Y246000D01*
X195500Y136500D02*
Y146000D01*
X190750Y141250D02*
X200250D01*
X222250Y142500D02*
X231750D01*
X227000Y137750D02*
Y147250D01*
X206500Y142500D02*
X216000D01*
X211250Y137750D02*
Y147250D01*
X227000Y166500D02*
Y176000D01*
X222250Y171250D02*
X231750D01*
X207750Y194000D02*
X217250D01*
X212500Y189250D02*
Y198750D01*
X179500Y76500D02*
X366500D01*
Y-1000D02*
Y76500D01*
X179500Y-1000D02*
X366500D01*
X179500D02*
Y76500D01*
D52*
X313000Y192250D02*
X341000D01*
X313000Y156250D02*
X341000D01*
Y192250D01*
X313000Y156250D02*
Y192250D01*
X356750Y77250D02*
Y115250D01*
X310750Y77250D02*
Y115250D01*
Y77250D02*
X356750D01*
X310750Y115250D02*
X356750D01*
X294750Y105750D02*
X309750D01*
X294750Y78750D02*
X309750D01*
Y105750D01*
X294750Y78750D02*
Y105750D01*
X260500Y156000D02*
X275500D01*
X260500Y129000D02*
X275500D01*
Y156000D01*
X260500Y129000D02*
Y156000D01*
X276250D02*
X291250D01*
X276250Y129000D02*
X291250D01*
Y156000D01*
X276250Y129000D02*
Y156000D01*
X272500Y157000D02*
Y185000D01*
X251000Y157000D02*
X272500D01*
X251000D02*
Y185000D01*
X272500D01*
X259750Y128750D02*
Y155750D01*
X244750Y128750D02*
Y155750D01*
X259750D01*
X244750Y128750D02*
X259750D01*
X184250Y78500D02*
X199250D01*
X184250Y105500D02*
X199250D01*
X184250Y78500D02*
Y105500D01*
X199250Y78500D02*
Y105500D01*
X215750Y78500D02*
X230750D01*
X215750Y105500D02*
X230750D01*
X215750Y78500D02*
Y105500D01*
X230750Y78500D02*
Y105500D01*
X412500Y76000D02*
Y91000D01*
X385500Y76000D02*
Y91000D01*
Y76000D02*
X412500D01*
X385500Y91000D02*
X412500D01*
Y91750D02*
Y106750D01*
X385500Y91750D02*
Y106750D01*
Y91750D02*
X412500D01*
X385500Y106750D02*
X412500D01*
Y123250D02*
Y138250D01*
X385500Y123250D02*
Y138250D01*
Y123250D02*
X412500D01*
X385500Y138250D02*
X412500D01*
X385250Y170500D02*
X412250D01*
X385250Y185500D02*
X412250D01*
Y170500D02*
Y185500D01*
X385250Y170500D02*
Y185500D01*
Y122500D02*
X412250D01*
X385250Y107500D02*
X412250D01*
X385250D02*
Y122500D01*
X412250Y107500D02*
Y122500D01*
X385250Y169750D02*
X412250D01*
X385250Y154750D02*
X412250D01*
X385250D02*
Y169750D01*
X412250Y154750D02*
Y169750D01*
X385250Y139000D02*
X412250D01*
X385250Y154000D02*
X412250D01*
Y139000D02*
Y154000D01*
X385250Y139000D02*
Y154000D01*
X135000Y125750D02*
Y140750D01*
X162000Y125750D02*
Y140750D01*
X135000D02*
X162000D01*
X135000Y125750D02*
X162000D01*
X135000Y94250D02*
Y109250D01*
X162000Y94250D02*
Y109250D01*
X135000D02*
X162000D01*
X135000Y94250D02*
X162000D01*
X135000Y62750D02*
Y77750D01*
X162000Y62750D02*
Y77750D01*
X135000D02*
X162000D01*
X135000Y62750D02*
X162000D01*
X135000Y78500D02*
Y93500D01*
X162000Y78500D02*
Y93500D01*
X135000D02*
X162000D01*
X135000Y78500D02*
X162000D01*
X134750Y188000D02*
X161750D01*
X134750Y173000D02*
X161750D01*
X134750D02*
Y188000D01*
X161750Y173000D02*
Y188000D01*
X134750Y110000D02*
X161750D01*
X134750Y125000D02*
X161750D01*
Y110000D02*
Y125000D01*
X134750Y110000D02*
Y125000D01*
Y157250D02*
X161750D01*
X134750Y172250D02*
X161750D01*
Y157250D02*
Y172250D01*
X134750Y157250D02*
Y172250D01*
Y156500D02*
X161750D01*
X134750Y141500D02*
X161750D01*
X134750D02*
Y156500D01*
X161750Y141500D02*
Y156500D01*
X263250Y105500D02*
X278250D01*
X263250Y78500D02*
X278250D01*
Y105500D01*
X263250Y78500D02*
Y105500D01*
X279000Y105750D02*
X294000D01*
X279000Y78750D02*
X294000D01*
Y105750D01*
X279000Y78750D02*
Y105750D01*
X200000D02*
X215000D01*
X200000Y78750D02*
X215000D01*
Y105750D01*
X200000Y78750D02*
Y105750D01*
X262250Y78500D02*
Y105500D01*
X247250Y78500D02*
Y105500D01*
X262250D01*
X247250Y78500D02*
X262250D01*
X231500Y105750D02*
X246500D01*
X231500Y78750D02*
X246500D01*
Y105750D01*
X231500Y78750D02*
Y105750D01*
X282750Y186500D02*
Y201500D01*
X255750Y186500D02*
Y201500D01*
Y186500D02*
X282750D01*
X255750Y201500D02*
X282750D01*
X276250Y184500D02*
X291250D01*
X276250Y157500D02*
X291250D01*
Y184500D01*
X276250Y157500D02*
Y184500D01*
X341000Y204250D02*
X368000D01*
X341000Y219250D02*
X368000D01*
Y204250D02*
Y219250D01*
X341000Y204250D02*
Y219250D01*
X373750Y204250D02*
X400750D01*
X373750Y219250D02*
X400750D01*
Y204250D02*
Y219250D01*
X373750Y204250D02*
Y219250D01*
X313250Y140000D02*
Y155000D01*
X340250Y140000D02*
Y155000D01*
X313250D02*
X340250D01*
X313250Y140000D02*
X340250D01*
X306750Y196250D02*
Y211250D01*
X333750Y196250D02*
Y211250D01*
X306750D02*
X333750D01*
X306750Y196250D02*
X333750D01*
X358250Y107750D02*
Y134750D01*
X373250Y107750D02*
Y134750D01*
X358250Y107750D02*
X373250D01*
X358250Y134750D02*
X373250D01*
X358000Y78750D02*
Y105750D01*
X373000Y78750D02*
Y105750D01*
X358000Y78750D02*
X373000D01*
X358000Y105750D02*
X373000D01*
X387500Y223250D02*
Y257250D01*
X353500Y223250D02*
Y257250D01*
X387500D01*
X353500Y223250D02*
X387500D01*
X403250Y230250D02*
Y257250D01*
X388250Y230250D02*
Y257250D01*
X403250D01*
X388250Y230250D02*
X403250D01*
X175250Y219500D02*
X202250D01*
X175250Y204500D02*
X202250D01*
X175250D02*
Y219500D01*
X202250Y204500D02*
Y219500D01*
X146750D02*
X173750D01*
X146750Y204500D02*
X173750D01*
X146750D02*
Y219500D01*
X173750Y204500D02*
Y219500D01*
X193250Y223250D02*
Y257250D01*
X159250Y223250D02*
Y257250D01*
X193250D01*
X159250Y223250D02*
X193250D01*
X158750Y230250D02*
Y257250D01*
X143750Y230250D02*
Y257250D01*
X158750D01*
X143750Y230250D02*
X158750D01*
X388250Y194780D02*
Y222250D01*
X403250Y194780D02*
Y222250D01*
X388250D02*
X403250D01*
X388250Y194780D02*
X403250D01*
X143750D02*
Y222250D01*
X158750Y194780D02*
Y222250D01*
X143750D02*
X158750D01*
X143750Y194780D02*
X158750D01*
X388250Y227280D02*
Y254750D01*
X403250Y227280D02*
Y254750D01*
X388250D02*
X403250D01*
X388250Y227280D02*
X403250D01*
X143750D02*
Y254750D01*
X158750Y227280D02*
Y254750D01*
X143750D02*
X158750D01*
X143750Y227280D02*
X158750D01*
X188000Y127750D02*
X203000D01*
X188000Y154750D02*
X203000D01*
X188000Y127750D02*
Y154750D01*
X203000Y127750D02*
Y154750D01*
X219500Y129000D02*
Y156000D01*
X234500Y129000D02*
Y156000D01*
X219500Y129000D02*
X234500D01*
X219500Y156000D02*
X234500D01*
X203750Y129000D02*
Y156000D01*
X218750Y129000D02*
Y156000D01*
X203750Y129000D02*
X218750D01*
X203750Y156000D02*
X218750D01*
X219500Y184750D02*
X234500D01*
X219500Y157750D02*
X234500D01*
Y184750D01*
X219500Y157750D02*
Y184750D01*
X226000Y186500D02*
Y201500D01*
X199000Y186500D02*
Y201500D01*
Y186500D02*
X226000D01*
X199000Y201500D02*
X226000D01*
X215750Y157000D02*
Y185000D01*
X194250Y157000D02*
X215750D01*
X194250D02*
Y185000D01*
X215750D01*
M02*
