M48
;Layer_Color=9474304
;FILE_FORMAT=4:4
METRIC,LZ
;TYPE=PLATED
T1F00S00C0.2000
T2F00S00C0.2000
T3F00S00C2.5000
%
T01
X0019175Y000785
X0027075
X0026175Y0018525
X00205Y001855
X0019325Y00194
X00327Y0019375
T02
X0018725Y0004325
X002205Y00045
Y000255
X0021625Y000285
X002305Y000065
X002505
X002605
X002635Y0002625
X002705Y000255
X002805Y00025744
X002905Y000255
X003005
X003105
X003205
X0032975Y000285
X0032575Y0003825
X003035Y00042
X002905Y00045
X002705
X002855Y000065
X003055
X003155
X0032325Y00005
X003305Y000065
X003255Y00064
X0032075Y000735
X0030225Y00076
X002955Y000685
X002805Y0006925
X002755Y00064
X002655
X0024975Y0006875
X00239Y0007775
X0022325Y0007825
X002075Y00076
Y0010575
X0021125Y0012925
X00227
X0025225Y0012875
X00268Y001275
X0028375Y0012925
X002865Y0010575
X0030225
X00321Y001135
X0032875Y00105
X0031125Y000855
X002865Y000785
X0027075Y0010525
X00255Y00106
X00239Y0010575
X001955Y0012775
X0019525Y0017075
X0021425
X002165Y00179
X00227Y0018475
X00226Y00194
X0025575
X0025225Y00171
X0027125
X0028375Y001845
X0028275Y00194
X0030675Y0020375
X0033375
X003885Y0019275
X0039575Y00194
X0040325Y00189
X0038525Y00178
Y0016225
Y00115
X003845Y0009925
X0038475Y000835
X003735Y000855
X003655Y0010575
X00357Y00128
X003335Y00138
X0031325Y001475
X0034325Y000595
X0016175Y0007025
Y00086
Y0010175
X0016175Y001175
Y0016475
Y001805
X0015125Y0019375
X001415Y0018925
X0017Y0020025
X00192496Y00231754
X0015975Y0025
X001075Y0015075
Y0013805
X001085Y0013075
X001075Y0011265
X00081Y0011255
Y0009985
Y0013795
X0006375Y001602
X0037325Y0023025
X0038675Y0025025
X004415Y001524
Y0013975
X0044125Y0013325
X004385Y0011425
Y0010155
X00465Y0011435
Y0013975
X00465Y00152
T03
X000215Y0012825
X005245Y0012475
M30
